<svg width="126" height="97" viewBox="0 0 126 97" fill="none" xmlns="http://www.w3.org/2000/svg">
<path d="M106.62 7.98003C98.64 4.26003 90 1.56003 81 3.18485e-05C80.9211 -0.00249177 80.8426 0.0123167 80.77 0.0434164C80.6974 0.0745161 80.6326 0.121152 80.58 0.180033C79.5 2.16003 78.24 4.74003 77.4 6.72003C67.854 5.28003 58.146 5.28003 48.6 6.72003C47.76 4.68003 46.5 2.16003 45.36 0.180033C45.3 0.0600331 45.12 3.18485e-05 44.94 3.18485e-05C35.94 1.56003 27.36 4.26003 19.32 7.98003C19.26 7.98003 19.2 8.04003 19.14 8.10003C2.81997 32.52 -1.68003 56.28 0.539971 79.8C0.539971 79.92 0.599971 80.04 0.719971 80.1C11.52 88.02 21.9 92.82 32.16 96C32.34 96.06 32.52 96 32.58 95.88C34.98 92.58 37.14 89.1 39 85.44C39.12 85.2 39 84.96 38.76 84.9C35.34 83.58 32.1 82.02 28.92 80.22C28.68 80.1 28.68 79.74 28.86 79.56C29.52 79.08 30.18 78.54 30.84 78.06C30.96 77.94 31.14 77.94 31.26 78C51.9 87.42 74.16 87.42 94.56 78C94.68 77.94 94.86 77.94 94.98 78.06C95.64 78.6 96.3 79.08 96.96 79.62C97.2 79.8 97.2 80.16 96.9 80.28C93.78 82.14 90.48 83.64 87.06 84.96C86.82 85.02 86.76 85.32 86.82 85.5C88.74 89.16 90.9 92.64 93.24 95.94C93.42 96 93.6 96.06 93.78 96C104.1 92.82 114.48 88.02 125.28 80.1C125.4 80.04 125.46 79.92 125.46 79.8C128.1 52.62 121.08 29.04 106.86 8.10003C106.8 8.04003 106.74 7.98003 106.62 7.98003ZM42.12 65.46C35.94 65.46 30.78 59.76 30.78 52.74C30.78 45.72 35.82 40.02 42.12 40.02C48.48 40.02 53.52 45.78 53.46 52.74C53.46 59.76 48.42 65.46 42.12 65.46ZM83.94 65.46C77.76 65.46 72.6 59.76 72.6 52.74C72.6 45.72 77.64 40.02 83.94 40.02C90.3 40.02 95.34 45.78 95.28 52.74C95.28 59.76 90.3 65.46 83.94 65.46Z" fill="currentColor"/>
</svg>
