<svg width="120" height="120" viewBox="0 0 120 120" fill="none" xmlns="http://www.w3.org/2000/svg">
<path d="M66.168 0C72.918 0.018 76.344 0.054 79.302 0.138L80.466 0.18C81.81 0.228 83.136 0.288 84.738 0.36C91.122 0.66 95.478 1.668 99.3 3.15C103.26 4.674 106.596 6.738 109.932 10.068C112.983 13.0674 115.344 16.6955 116.85 20.7C118.332 24.522 119.34 28.878 119.64 35.268C119.712 36.864 119.772 38.19 119.82 39.54L119.856 40.704C119.946 43.656 119.982 47.082 119.994 53.832L120 58.308V66.168C120.015 70.5444 119.969 74.9208 119.862 79.296L119.826 80.46C119.778 81.81 119.718 83.136 119.646 84.732C119.346 91.122 118.326 95.472 116.85 99.3C115.348 103.307 112.987 106.936 109.932 109.932C106.932 112.982 103.304 115.343 99.3 116.85C95.478 118.332 91.122 119.34 84.738 119.64C83.3143 119.707 81.8903 119.767 80.466 119.82L79.302 119.856C76.344 119.94 72.918 119.982 66.168 119.994L61.692 120H53.838C49.4596 120.015 45.0811 119.969 40.704 119.862L39.54 119.826C38.1157 119.772 36.6916 119.71 35.268 119.64C28.884 119.34 24.528 118.332 20.7 116.85C16.696 115.346 13.0693 112.985 10.074 109.932C7.02026 106.934 4.65733 103.305 3.14998 99.3C1.66798 95.478 0.659983 91.122 0.359983 84.732C0.293136 83.3083 0.233135 81.8843 0.179983 80.46L0.149984 79.296C0.0394159 74.9209 -0.0105895 70.5445 -1.6999e-05 66.168V53.832C-0.0167628 49.4556 0.0272419 45.0792 0.131983 40.704L0.173983 39.54C0.221983 38.19 0.281983 36.864 0.353983 35.268C0.653983 28.878 1.66198 24.528 3.14398 20.7C4.65067 16.6914 7.01831 13.0621 10.08 10.068C13.0745 7.01684 16.6988 4.65592 20.7 3.15C24.528 1.668 28.878 0.66 35.268 0.36C36.864 0.288 38.196 0.228 39.54 0.18L40.704 0.144C45.0791 0.0373962 49.4556 -0.00860818 53.832 0.00599956L66.168 0ZM60 30C52.0435 30 44.4129 33.1607 38.7868 38.7868C33.1607 44.4129 30 52.0435 30 60C30 67.9565 33.1607 75.5871 38.7868 81.2132C44.4129 86.8393 52.0435 90 60 90C67.9565 90 75.5871 86.8393 81.2132 81.2132C86.8393 75.5871 90 67.9565 90 60C90 52.0435 86.8393 44.4129 81.2132 38.7868C75.5871 33.1607 67.9565 30 60 30ZM60 42C62.3638 41.9996 64.7045 42.4648 66.8885 43.369C69.0725 44.2732 71.0571 45.5988 72.7288 47.27C74.4005 48.9411 75.7267 50.9252 76.6317 53.1089C77.5366 55.2926 78.0026 57.6332 78.003 59.997C78.0034 62.3608 77.5382 64.7015 76.634 66.8855C75.7298 69.0695 74.4042 71.0541 72.733 72.7258C71.0619 74.3975 69.0778 75.7237 66.8941 76.6287C64.7104 77.5336 62.3698 77.9996 60.006 78C55.2321 78 50.6537 76.1036 47.2781 72.7279C43.9024 69.3523 42.006 64.7739 42.006 60C42.006 55.2261 43.9024 50.6477 47.2781 47.2721C50.6537 43.8964 55.2321 42 60.006 42M91.506 21C89.5169 21 87.6092 21.7902 86.2027 23.1967C84.7962 24.6032 84.006 26.5109 84.006 28.5C84.006 30.4891 84.7962 32.3968 86.2027 33.8033C87.6092 35.2098 89.5169 36 91.506 36C93.4951 36 95.4028 35.2098 96.8093 33.8033C98.2158 32.3968 99.006 30.4891 99.006 28.5C99.006 26.5109 98.2158 24.6032 96.8093 23.1967C95.4028 21.7902 93.4951 21 91.506 21Z" fill="currentColor"/>
</svg>
