<svg width="16" height="17" viewBox="0 0 16 17" fill="none" xmlns="http://www.w3.org/2000/svg">
<path d="M15.137 16.8177L1.12902 8.93772C1.05207 8.89411 0.98807 8.83087 0.943541 8.75445C0.899011 8.67803 0.875549 8.59117 0.875549 8.50272C0.875549 8.41427 0.899011 8.32741 0.943541 8.25099C0.98807 8.17457 1.05207 8.11133 1.12902 8.06772L15.137 0.187721C15.2268 0.137599 15.3299 0.11639 15.4322 0.126984C15.5345 0.137577 15.631 0.179457 15.7087 0.246918C15.7863 0.314378 15.8412 0.404135 15.866 0.503956C15.8908 0.603776 15.8841 0.708804 15.847 0.804722L12.925 8.32172C12.8798 8.43815 12.8798 8.56729 12.925 8.68372L15.848 16.2007C15.8853 16.2968 15.8921 16.402 15.8673 16.502C15.8426 16.602 15.7875 16.6919 15.7097 16.7595C15.6319 16.827 15.5351 16.8688 15.4326 16.8793C15.3301 16.8897 15.2268 16.8682 15.137 16.8177Z" fill="#F5F5F5"/>
</svg>
