<svg width="15" height="17" viewBox="0 0 15 17" fill="none" xmlns="http://www.w3.org/2000/svg">
<path d="M0.744965 0.0641139L14.753 7.94411C14.8299 7.98772 14.8939 8.05096 14.9384 8.12738C14.983 8.2038 15.0064 8.29067 15.0064 8.37911C15.0064 8.46756 14.983 8.55443 14.9384 8.63085C14.8939 8.70726 14.8299 8.77051 14.753 8.81411L0.744965 16.6941C0.65516 16.7442 0.552085 16.7654 0.449787 16.7549C0.347489 16.7443 0.250946 16.7024 0.173317 16.6349C0.0956883 16.5675 0.0407515 16.4777 0.0159931 16.3779C-0.00876524 16.2781 -0.0021406 16.173 0.0349655 16.0771L2.95697 8.56011C3.00218 8.44368 3.00218 8.31455 2.95697 8.19811L0.0339661 0.681114C-0.00335617 0.585076 -0.0100986 0.479852 0.0146637 0.379836C0.039426 0.279821 0.0944828 0.189897 0.172302 0.122366C0.250122 0.0548352 0.346905 0.0129945 0.449411 0.00256737C0.551918 -0.00785977 0.655141 0.0136358 0.744965 0.0641139Z" fill="#F5F5F5"/>
</svg>
