<svg width="126" height="102" viewBox="0 0 126 102" fill="none" xmlns="http://www.w3.org/2000/svg">
<path d="M125.76 12C121.14 14.1 116.16 15.48 111 16.14C116.28 12.96 120.36 7.92 122.28 1.86C117.3 4.86 111.78 6.96 105.96 8.16C101.22 3 94.56 0 87 0C72.9 0 61.38 11.52 61.38 25.74C61.38 27.78 61.62 29.76 62.04 31.62C40.68 30.54 21.66 20.28 8.99999 4.74C6.77999 8.52 5.51999 12.96 5.51999 17.64C5.51999 26.58 10.02 34.5 16.98 39C12.72 39 8.75999 37.8 5.27999 36V36.18C5.27999 48.66 14.16 59.1 25.92 61.44C22.1444 62.4733 18.1806 62.617 14.34 61.86C15.9696 66.9749 19.1612 71.4505 23.4661 74.6576C27.771 77.8647 32.9727 79.6422 38.34 79.74C29.2418 86.9426 17.964 90.8359 6.35999 90.78C4.31999 90.78 2.27999 90.66 0.23999 90.42C11.64 97.74 25.2 102 39.72 102C87 102 112.98 62.76 112.98 28.74C112.98 27.6 112.98 26.52 112.92 25.38C117.96 21.78 122.28 17.22 125.76 12Z" fill="currentColor"/>
</svg>
