<svg width="120" height="84" viewBox="0 0 120 84" fill="none" xmlns="http://www.w3.org/2000/svg">
<path d="M48 60L79.14 42L48 24V60ZM117.36 13.02C118.14 15.84 118.68 19.62 119.04 24.42C119.46 29.22 119.64 33.36 119.64 36.96L120 42C120 55.14 119.04 64.8 117.36 70.98C115.86 76.38 112.38 79.86 106.98 81.36C104.16 82.14 99 82.68 91.08 83.04C83.28 83.46 76.14 83.64 69.54 83.64L60 84C34.86 84 19.2 83.04 13.02 81.36C7.62 79.86 4.14 76.38 2.64 70.98C1.86 68.16 1.32 64.38 0.960001 59.58C0.540001 54.78 0.36 50.64 0.36 47.04L0 42C0 28.86 0.960001 19.2 2.64 13.02C4.14 7.62 7.62 4.14 13.02 2.64C15.84 1.86 21 1.32 28.92 0.959999C36.72 0.539999 43.86 0.36 50.46 0.36L60 0C85.14 0 100.8 0.96 106.98 2.64C112.38 4.14 115.86 7.62 117.36 13.02Z" fill="currentColor"/>
</svg>
