<svg width="329" height="259" viewBox="0 0 329 259" fill="none" xmlns="http://www.w3.org/2000/svg">
<g clip-path="url(#clip0_504_54)">
<path d="M59.51 85.9301C65.56 81.3401 80.85 82.7201 85.3 88.6601C86.31 87.5401 87.34 86.5901 88.14 85.4801C91.25 81.1501 94.16 76.6701 97.39 72.4401C105.43 61.8801 115.76 54.6501 129.31 54.3101C151.78 53.7401 174.27 53.6701 196.74 53.9801C213.49 54.2101 224.76 64.0701 233.72 77.1501C236.24 80.8201 238.59 84.6001 241.03 88.3601C246.59 83.3801 262.63 81.3901 268.67 85.0001C261.54 95.9601 249.78 91.3101 240.17 93.6301C240.45 96.1034 242.78 97.1034 247.16 96.6301C238.62 103.3 230.38 109.75 222.13 116.19C222.41 116.65 222.69 117.11 222.97 117.57C224.36 116.8 225.74 116.01 227.13 115.25C235.6 110.62 243.86 105.55 252.62 101.56C257.31 99.4201 262.83 98.4001 268.02 98.1701C280.84 97.6101 287.06 109.19 289.37 119.49C290.2 123.19 290.4 127.09 290.42 130.9C290.53 147.56 290.47 164.22 290.47 180.89C303.22 184.61 315.71 188.26 328.2 191.91C328.1 192.37 328.01 192.82 327.91 193.28C219.09 201.43 110.26 201.66 0 193.08C2.77 191.96 4.31 191.15 5.96 190.69C15.73 187.98 25.47 185.14 35.34 182.84C38.54 182.09 39.19 180.94 39.18 177.89C39.14 159.73 39.17 141.56 39.59 123.41C39.68 119.56 40.98 115.51 42.62 111.96C48.22 99.8601 56.74 95.4101 69.42 99.5701C79.45 102.86 88.82 108.17 98.42 112.7C101.25 114.04 103.88 115.81 107.25 116.67C104.83 114.49 102.51 112.17 99.96 110.16C97.09 107.89 94.04 105.85 91.01 103.79C88.12 101.83 85.17 99.9801 81.88 97.8501C83.31 96.1701 88.8 97.8001 86.41 93.4201C77.24 91.0301 66.41 95.9101 59.52 85.9101L59.51 85.9301ZM94.7 94.3201C140.55 104.35 186.33 105.42 232.47 94.2001C224.85 85.1601 215.89 78.7901 204.53 76.4901C177.58 71.0401 150.57 71.5501 123.66 76.8001C111.79 79.1201 102.4 85.7801 94.7 94.3101V94.3201ZM135.09 144.29C136.94 152.95 138.6 161.21 140.61 169.39C140.86 170.39 142.99 171.57 144.25 171.58C158.55 171.72 172.86 171.71 187.16 171.54C188.41 171.53 190.52 170.32 190.76 169.32C192.73 161.15 194.35 152.89 196.16 144.29H135.08H135.09ZM240.3 178.41C240.3 177.58 240.3 176.74 240.3 175.91C190.87 184.6 141.38 184.85 91.84 177.91C141.38 191.36 190.86 190.9 240.29 178.42L240.3 178.41ZM216.44 68.4501C210 63.5601 202.36 60.8301 194.38 60.6401C174.76 60.1701 155.1 60.1001 135.49 60.6501C126.79 60.8901 118.22 63.2601 111.01 68.8701C128.73 68.0601 146.22 66.6801 163.73 66.6101C181.31 66.5401 198.89 67.7801 216.45 68.4401L216.44 68.4501ZM210.34 137.48C210.39 137.91 210.44 138.33 210.48 138.76C220.51 138.03 230.53 137.19 240.57 136.58C255.49 135.67 263.04 125.6 270.22 112.9C249.62 119.67 230.16 126.07 210.7 132.47C210.8 132.8 210.89 133.13 210.99 133.46C222.25 132.1 233.51 130.74 244.77 129.38C244.87 130.01 244.98 130.63 245.08 131.26C233.5 133.33 221.92 135.4 210.34 137.47V137.48ZM119.75 133.52C119.82 133.26 119.9 133 119.97 132.73C110.21 129.47 100.49 126.11 90.69 122.99C80.89 119.87 71.01 116.98 61.16 113.99C63.37 118.44 65.76 122.08 68.68 125.21C71.69 128.44 74.75 132.54 78.61 133.89C91.52 138.38 105.11 138.38 118.74 137.39C107.16 135.29 95.58 133.19 84.01 131.09C84.11 130.49 84.22 129.89 84.32 129.29C96.13 130.7 107.94 132.11 119.74 133.52H119.75ZM42.76 172.16C49.76 181.71 94.24 174.51 112.45 160.26C110.64 160.55 109.34 160.7 108.08 160.97C98.97 162.88 89.83 164.68 80.77 166.79C77.87 167.47 76.3 166.58 75.28 164.07C72.4 156.99 69.55 149.9 66.68 142.81C66.2 141.63 65.69 140.46 65.2 139.28C64.78 139.43 64.36 139.58 63.94 139.73C66.01 149.4 68.09 159.06 70.44 170.05C60.86 170.78 51.71 171.48 42.77 172.16H42.76ZM260.42 169.88C262.8 157.83 264.94 147.02 267.08 136.22C263.25 143.68 260.57 151.35 257.8 158.98C254.68 167.56 254.63 167.58 245.83 165.86C236.82 164.1 227.82 162.27 218.82 160.48C230.66 167.3 243.32 171.72 256.51 174.44C262.65 175.7 269.02 176.41 275.27 176.35C279.16 176.31 283.03 174.34 286.91 173.24C286.73 173.06 286.56 172.87 286.38 172.69C277.77 171.76 269.15 170.83 260.42 169.89V169.88Z" fill="white"/>
<path d="M32.8399 109.71C29.2199 107.01 26.2799 104.84 23.3599 102.63C17.9299 98.5099 17.7999 94.5 23.4199 90.75C33.9499 83.73 44.7499 77.1 55.3099 70.12C89.6399 47.44 123.94 24.71 158.15 1.84996C161.69 -0.510043 164.17 -0.700043 167.85 1.78996C202.74 25.42 237.74 48.89 272.8 72.25C281.66 78.16 290.89 83.52 299.93 89.16C301.62 90.22 303.38 91.24 304.84 92.58C308.15 95.6 307.88 99.13 304.25 101.78C301.3 103.94 298.27 106 294.85 108.4C294.03 106.82 293.33 105.23 292.42 103.77C290.94 101.38 289.86 98.03 287.68 96.91C280.58 93.27 277.94 86.7299 274.79 80.21C272.09 74.63 267.48 72.04 260.91 72.79C253.95 73.58 248.03 71.43 241.97 67.21C216.71 49.62 190.97 32.71 165.29 15.72C164.14 14.96 161.47 15.27 160.18 16.12C133.96 33.23 107.8 50.44 81.7299 67.78C75.8099 71.72 70.0399 75.03 62.4599 74.75C56.5099 74.53 52.6699 78.67 50.5599 83.95C48.7499 88.4699 45.8799 91.71 41.8399 94.4C39.7199 95.82 38.2499 98.44 36.9199 100.76C35.3799 103.46 34.3099 106.43 32.8399 109.71Z" fill="white"/>
<path d="M78.2998 205.49C90.9298 205.23 101.48 205.16 111.69 212.41C126.85 223.17 143.34 232.04 159.17 241.86C161.84 243.52 163.78 243.29 166.35 241.69C184.84 230.17 203.4 218.76 222.01 207.41C223.61 206.44 225.63 205.75 227.48 205.68C233.21 205.46 238.95 205.6 245.81 205.6C239.58 209.87 234.22 213.69 228.71 217.28C208.22 230.64 187.65 243.87 167.21 257.29C164.19 259.27 161.99 259.51 158.79 257.43C134.23 241.49 109.53 225.77 84.8798 209.97C83.0598 208.81 81.3198 207.54 78.3098 205.48L78.2998 205.49Z" fill="white"/>
<path d="M209.55 207.25C208.09 208.46 206.75 209.85 205.16 210.84C192.03 219.01 178.89 227.18 165.62 235.14C164.23 235.98 161.57 236.24 160.28 235.46C145.87 226.83 131.61 217.94 117.32 209.11C116.24 208.44 115.19 207.71 114.9 206.23H209.16C209.29 206.57 209.42 206.91 209.55 207.25ZM163.81 211.14C161.34 214.62 158.79 216.66 158.74 218.77C158.7 220.42 161.94 223.65 163.4 223.47C165.55 223.21 168.76 220.73 169 218.86C169.24 217 166.39 214.73 163.81 211.14Z" fill="white"/>
<path d="M220.55 92.2601C183.53 98.3401 146.47 98.7901 109.41 92.9501C146.39 81.6201 183.42 81.0901 220.55 92.2601Z" fill="white"/>
</g>
<defs>
<clipPath id="clip0_504_54">
<rect width="328.2" height="258.9" fill="white"/>
</clipPath>
</defs>
</svg>
